<?xml version="1.0" standalone="no"?>
<!DOCTYPE svg PUBLIC "-//W3C//DTD SVG 20010904//EN"
 "http://www.w3.org/TR/2001/REC-SVG-20010904/DTD/svg10.dtd">
<svg version="1.0" xmlns="http://www.w3.org/2000/svg"
 width="210.000000pt" height="241.000000pt" viewBox="0 0 210.000000 241.000000"
 preserveAspectRatio="xMidYMid meet">

<g transform="translate(0.000000,241.000000) scale(0.100000,-0.100000)"
fill="#000000" stroke="none">
<path d="M340 1900 l0 -40 -40 0 -40 0 0 -40 0 -40 -40 0 -40 0 0 -80 0 -80
40 0 40 0 0 -40 0 -40 40 0 40 0 0 -40 0 -40 -40 0 -40 0 0 -40 0 -40 -40 0
-40 0 0 -40 0 -40 -40 0 -40 0 0 -160 0 -160 -40 0 -40 0 0 -160 0 -160 40 0
40 0 0 -120 0 -120 40 0 40 0 0 -80 0 -80 40 0 40 0 0 -40 0 -40 120 0 120 0
0 -40 0 -40 40 0 40 0 0 -40 0 -40 115 0 115 0 0 40 0 40 245 0 245 0 0 -40 0
-40 115 0 115 0 0 40 0 40 40 0 40 0 0 40 0 40 120 0 120 0 0 40 0 40 40 0 40
0 0 80 0 80 40 0 40 0 0 120 0 120 40 0 40 0 0 160 0 160 -40 0 -40 0 0 160 0
160 -40 0 -40 0 0 40 0 40 -40 0 -40 0 0 40 0 40 -40 0 -40 0 0 40 0 40 40 0
40 0 0 40 0 40 40 0 40 0 0 80 0 80 -40 0 -40 0 0 40 0 40 -40 0 -40 0 0 40 0
40 -115 0 -115 0 0 -40 0 -40 -40 0 -40 0 0 -40 0 -40 -40 0 -40 0 0 -40 0
-40 -85 0 -85 0 0 40 0 40 -155 0 -155 0 0 -40 0 -40 -85 0 -85 0 0 40 0 40
-40 0 -40 0 0 40 0 40 -40 0 -40 0 0 40 0 40 -115 0 -115 0 0 -40z m230 -80
l0 -40 -80 0 -80 0 0 -80 0 -80 85 0 85 0 0 80 0 80 35 0 c34 0 35 -1 35 -40
l0 -40 40 0 40 0 0 -40 0 -40 85 0 85 0 0 40 0 40 155 0 155 0 0 -40 0 -40 85
0 85 0 0 40 0 40 40 0 40 0 0 40 c0 39 1 40 35 40 l35 0 0 -80 0 -80 85 0 85
0 0 80 0 80 -80 0 -80 0 0 40 0 40 115 0 115 0 0 -40 0 -40 40 0 40 0 0 -80 0
-80 -40 0 -40 0 0 -40 0 -40 -40 0 -40 0 0 -40 0 -40 40 0 40 0 0 -40 0 -40
40 0 40 0 0 -40 0 -40 40 0 40 0 0 -160 0 -160 40 0 40 0 0 -160 0 -160 -40 0
-40 0 0 -120 0 -120 -40 0 -40 0 0 -80 0 -80 -120 0 -120 0 0 -40 0 -40 -40 0
-40 0 0 -40 0 -40 -115 0 -115 0 0 80 0 80 -40 0 -40 0 0 -40 0 -40 -165 0
-165 0 0 40 0 40 -40 0 -40 0 0 -80 0 -80 -115 0 -115 0 0 40 0 40 -40 0 -40
0 0 40 0 40 -120 0 -120 0 0 80 0 80 -40 0 -40 0 0 120 0 120 -40 0 -40 0 0
160 0 160 40 0 40 0 0 160 0 160 40 0 40 0 0 40 0 40 40 0 40 0 0 40 0 40 40
0 40 0 0 40 0 40 -40 0 -40 0 0 40 0 40 -40 0 -40 0 0 80 0 80 40 0 40 0 0 40
0 40 115 0 115 0 0 -40z"/>
<path d="M810 1420 l0 -40 40 0 40 0 0 -40 0 -40 45 0 45 0 0 40 0 40 75 0 75
0 0 -40 0 -40 45 0 45 0 0 40 0 40 40 0 40 0 0 40 0 40 -45 0 -45 0 0 -40 c0
-39 -1 -40 -35 -40 -34 0 -35 1 -35 40 l0 40 -85 0 -85 0 0 -40 c0 -39 -1 -40
-35 -40 -34 0 -35 1 -35 40 l0 40 -45 0 -45 0 0 -40z"/>
<path d="M970 1180 l0 -40 -80 0 -80 0 0 -40 0 -40 -80 0 -80 0 0 -40 0 -40
-40 0 -40 0 0 -200 0 -200 40 0 40 0 0 -120 0 -120 40 0 40 0 0 -40 0 -40 40
0 40 0 0 40 0 40 -40 0 -40 0 0 120 0 120 -40 0 -40 0 0 200 0 200 80 0 80 0
0 40 0 40 80 0 80 0 0 40 0 40 85 0 85 0 0 -40 0 -40 80 0 80 0 0 -40 0 -40
80 0 80 0 0 -200 0 -200 -40 0 -40 0 0 -120 0 -120 -40 0 -40 0 0 -40 0 -40
40 0 40 0 0 40 0 40 40 0 40 0 0 120 0 120 40 0 40 0 0 200 0 200 -40 0 -40 0
0 40 0 40 -80 0 -80 0 0 40 0 40 -80 0 -80 0 0 40 0 40 -85 0 -85 0 0 -40z"/>
</g>
</svg>
